<svg width="20" height="16" viewBox="0 0 20 16" fill="none" xmlns="http://www.w3.org/2000/svg">
<path d="M9.15805 5.20698C6.99403 5.45121 4.99566 6.4836 3.54424 8.10719C2.09282 9.73078 1.28995 11.8319 1.28882 14.0097V14.5708C2.25101 13.4117 3.45236 12.4743 4.81059 11.8227C6.16882 11.1711 7.65183 10.8208 9.15805 10.7958V13.7548C9.1581 13.9652 9.21739 14.1713 9.32914 14.3496C9.44089 14.5279 9.60058 14.6711 9.78993 14.7628C9.97927 14.8546 10.1906 14.8912 10.3998 14.8684C10.609 14.8457 10.8075 14.7644 10.9727 14.6341L18.2991 8.84909C18.4275 8.74791 18.5312 8.61894 18.6026 8.47187C18.6739 8.3248 18.711 8.16346 18.711 8C18.711 7.83654 18.6739 7.6752 18.6026 7.52813C18.5312 7.38106 18.4275 7.25209 18.2991 7.15091L10.9727 1.36589C10.8075 1.23555 10.609 1.15435 10.3998 1.13158C10.1906 1.10881 9.97927 1.1454 9.78993 1.23716C9.60058 1.32891 9.44089 1.47213 9.32914 1.65041C9.21739 1.82869 9.1581 2.03484 9.15805 2.24524V5.20698Z" stroke="#6F777E" stroke-width="1.5" stroke-linecap="round" stroke-linejoin="round"/>
</svg>
