<svg width="72" height="31" viewBox="0 0 72 31" fill="none" xmlns="http://www.w3.org/2000/svg">
<path d="M67.3312 15.6448V24.307C67.3312 25.6883 67.7878 26.3907 69.1573 26.3907C69.9065 26.3907 70.7844 26.1448 71.3463 25.7586V29.5746C70.445 30.0312 69.3095 30.2067 68.3145 30.2067C64.6975 30.1833 62.766 28.3455 62.766 24.986V15.6565H60.0503V12.1916H62.766V7.34544H67.3312V12.1916H71.3463V15.6565H67.3312V15.6448ZM13.7073 10.6933C12.4314 10.6933 11.1203 10.9742 9.89122 11.4424L12.6772 0.520996H7.98318L7.23402 3.5879L3.7223 17.4943L0.655396 29.6097H5.26745L8.38118 17.389L8.90794 15.3287C9.83269 14.8488 10.9681 14.5796 12.0919 14.5796C14.632 14.5796 15.9314 15.9374 15.9314 18.6181V29.6097H20.6254V17.8221C20.6254 12.6013 17.8979 10.6699 13.7073 10.6933ZM53.7292 22.5629C53.7292 25.1733 52.6288 26.379 50.1706 26.379C47.6656 26.379 46.5536 25.1499 46.5536 22.5629V12.1682H42.1639V23.0428C42.1639 27.8656 45.3011 30.1482 50.1472 30.1482C54.9934 30.1482 57.9315 27.8656 57.9315 23.0428V12.1799H53.7292V22.5629ZM35.082 22.5629C35.082 25.1733 33.9816 26.379 31.5234 26.379C29.0184 26.379 27.9063 25.1499 27.9063 22.5629V12.1682H23.5167V23.0428C23.5167 27.8656 26.6538 30.1482 31.5 30.1482C36.3462 30.1482 39.2843 27.8656 39.2843 23.0428V12.1799H35.0937V22.5629H35.082Z" fill="url(#paint0_linear_1_2486)"/>
<defs>
<linearGradient id="paint0_linear_1_2486" x1="6.71613" y1="2.72623" x2="66.8108" y2="37.4219" gradientUnits="userSpaceOnUse">
<stop stop-color="#FD5538"/>
<stop offset="1" stop-color="#FD2C64"/>
</linearGradient>
</defs>
</svg>
