<svg width="980" height="980" viewBox="0 0 980 980" fill="none" xmlns="http://www.w3.org/2000/svg">
<g clip-path="url(#clip0_142_911)">
<path d="M0 476.84C1.54574 479.937 1.54574 483.033 0 486.129C0 481.485 0 478.389 0 476.84Z" fill="#1A1A1A"/>
<path d="M505.457 0C502.366 1.54818 500.82 1.54818 497.729 0C499.274 0 502.366 0 505.457 0Z" fill="#272727"/>
<path d="M0 495.418C1.54574 498.515 1.54574 500.063 0 503.159C0 500.063 0 498.515 0 495.418Z" fill="#1A1A1A"/>
<path d="M480.725 0C479.179 1.54818 476.088 0 472.996 1.54818C476.088 0 479.179 0 480.725 0Z" fill="#272727"/>
<path d="M474.542 0C472.997 0 469.905 1.54818 468.359 0C469.905 0 472.997 0 474.542 0Z" fill="#565656"/>
<path d="M0 462.907C1.54574 464.455 1.54574 467.551 0 469.099C0 467.551 0 464.455 0 462.907Z" fill="#8F8F8F"/>
<path d="M0 509.353C1.54574 510.901 1.54574 512.449 0 513.997C0 512.449 0 510.901 0 509.353Z" fill="#777777"/>
<path d="M514.732 0C513.186 1.54818 513.186 1.54818 511.641 0C511.641 0 513.186 0 514.732 0Z" fill="#8F8F8F"/>
<path d="M978.455 442.781C975.363 414.913 970.726 388.594 962.997 360.727C949.085 311.185 928.991 264.74 901.168 221.39C876.436 184.234 848.612 151.722 814.606 122.307C785.237 95.9875 752.776 74.313 717.224 55.7348C687.855 40.2529 656.94 27.8675 624.48 18.5784C598.202 10.8374 570.379 6.19289 542.555 3.09652C534.827 1.54834 527.098 3.09652 517.824 1.54834C516.278 1.54834 516.278 1.54834 514.732 1.54834C513.186 1.54834 513.186 1.54834 511.641 1.54834C510.095 1.54834 507.003 1.54834 505.458 1.54834C502.366 3.09652 500.821 3.09652 497.729 1.54834C493.092 1.54834 486.909 1.54834 482.272 1.54834C480.726 3.09652 477.634 1.54834 476.089 1.54834C474.543 1.54834 471.451 1.54834 469.906 1.54834C466.814 1.54834 465.268 1.54834 462.177 1.54834C455.994 3.09652 448.265 1.54834 442.082 3.09652C423.533 4.64471 406.53 7.74107 387.981 10.8374C340.063 21.6747 295.237 38.7047 251.956 61.9275C202.492 89.7948 160.757 123.855 123.66 165.656C97.382 195.071 75.7416 227.583 57.1927 263.191C41.7353 292.607 29.3694 325.119 20.095 356.082C12.3662 382.401 6.18328 410.269 4.63754 438.136C4.63754 445.877 4.63754 453.618 3.0918 459.811C3.0918 461.359 3.0918 461.359 3.0918 462.907C4.63754 464.455 4.63754 467.552 3.0918 469.1C3.0918 472.196 3.0918 473.744 3.0918 476.841C4.63754 479.937 4.63754 483.033 3.0918 486.13C3.0918 489.226 3.0918 492.322 3.0918 495.419C4.63754 498.515 4.63754 500.063 3.0918 503.16C3.0918 504.708 3.0918 507.804 3.0918 509.353C4.63754 510.901 4.63754 512.449 3.0918 513.997C3.0918 517.093 3.0918 518.642 3.0918 521.738C4.63754 527.931 3.0918 534.123 4.63754 540.316C3.0918 566.635 9.27476 592.954 15.4577 619.274C26.2779 657.978 41.7353 695.135 60.2842 730.743C86.5618 778.736 122.114 820.537 162.303 857.694C194.764 885.561 228.77 910.332 267.414 928.91C304.511 947.488 343.155 961.422 383.344 970.711C406.53 975.356 429.716 980 452.903 980C472.997 981.548 493.092 980 513.186 980C545.647 980 576.562 973.808 607.477 966.067C650.757 955.229 692.492 938.199 731.136 916.525C785.237 885.561 831.609 845.308 871.798 795.766C896.53 764.803 918.171 730.743 935.174 693.586C949.086 662.623 959.906 631.659 967.634 599.147C973.817 571.28 978.455 541.864 978.455 513.997C980 490.774 980 466.003 978.455 442.781ZM490 908.784C258.139 908.784 71.1044 721.454 71.1044 489.226C71.1044 256.999 259.685 69.6684 490 71.2166C721.862 71.2166 908.896 258.547 908.896 490.774C907.35 721.454 720.316 908.784 490 908.784Z" fill="url(#paint0_linear_142_911)"/>
<path d="M418.896 490.774C418.896 548.057 418.896 606.888 418.896 664.171C418.896 682.749 406.53 696.683 389.527 699.779C369.433 702.875 349.338 687.393 349.338 667.267C349.338 665.719 349.338 664.171 349.338 662.622C349.338 548.057 349.338 431.943 349.338 317.378C349.338 300.348 358.612 287.962 372.524 281.769C395.71 274.028 418.896 291.058 418.896 315.829C418.896 373.112 418.896 431.943 418.896 490.774Z" fill="url(#paint1_linear_142_911)"/>
<path d="M629.116 490.774C629.116 548.057 629.116 606.888 629.116 664.171C629.116 682.749 616.75 696.683 598.201 699.779C578.106 702.875 559.557 687.393 558.012 667.267C558.012 665.719 558.012 664.171 558.012 662.622C558.012 548.057 558.012 431.943 558.012 317.378C558.012 300.348 567.286 286.414 582.744 281.769C605.93 274.028 629.116 291.058 629.116 315.829C629.116 348.341 629.116 380.853 629.116 413.365C629.116 438.136 629.116 464.455 629.116 490.774Z" fill="url(#paint2_linear_142_911)"/>
</g>
<defs>
<linearGradient id="paint0_linear_142_911" x1="159.239" y1="133.029" x2="759.738" y2="132.738" gradientUnits="userSpaceOnUse">
<stop stop-color="#FF395C"/>
<stop offset="1" stop-color="#FF5C29"/>
</linearGradient>
<linearGradient id="paint1_linear_142_911" x1="360.46" y1="336.321" x2="403.234" y2="336.318" gradientUnits="userSpaceOnUse">
<stop stop-color="#FF395C"/>
<stop offset="1" stop-color="#FF5C29"/>
</linearGradient>
<linearGradient id="paint2_linear_142_911" x1="569.381" y1="336.321" x2="613.106" y2="336.318" gradientUnits="userSpaceOnUse">
<stop stop-color="#FF395C"/>
<stop offset="1" stop-color="#FF5C29"/>
</linearGradient>
<clipPath id="clip0_142_911">
<rect width="980" height="980" fill="white"/>
</clipPath>
</defs>
</svg>
