<svg width="11" height="11" viewBox="0 0 11 11" fill="none" xmlns="http://www.w3.org/2000/svg">
<path fill-rule="evenodd" clip-rule="evenodd" d="M5.49995 1.56328C3.3287 1.56328 1.56245 3.32953 1.56245 5.50077C1.56245 7.67202 3.3287 9.43828 5.49995 9.43828C7.6712 9.43828 9.43745 7.67202 9.43745 5.50077C9.43745 3.32953 7.6712 1.56328 5.49995 1.56328ZM5.49995 10.1133C2.95655 10.1133 0.887451 8.04418 0.887451 5.50078C0.887451 2.95738 2.95655 0.888275 5.49995 0.888275C8.04335 0.888275 10.1125 2.95738 10.1125 5.50078C10.1125 8.04418 8.04335 10.1133 5.49995 10.1133Z" fill="url(#paint0_linear_66_508)"/>
<path fill-rule="evenodd" clip-rule="evenodd" d="M4.98427 6.88888C4.88196 6.88888 4.78376 6.84827 4.71126 6.77577L3.73851 5.80199C3.58838 5.65135 3.58838 5.40662 3.73902 5.25649C3.88915 5.10585 4.13388 5.10585 4.28453 5.25649L4.98427 5.95726L6.7159 4.22564C6.86654 4.07499 7.11024 4.07499 7.26088 4.22564C7.41153 4.37628 7.41153 4.6205 7.26088 4.77114L5.25677 6.77577C5.18479 6.84827 5.08658 6.88888 4.98427 6.88888Z" fill="url(#paint1_linear_66_508)"/>
<defs>
<linearGradient id="paint0_linear_66_508" x1="9.99976" y1="5.00009" x2="0.999756" y2="6.00009" gradientUnits="userSpaceOnUse">
<stop stop-color="#FF5C29"/>
<stop offset="1" stop-color="#FF395C"/>
</linearGradient>
<linearGradient id="paint1_linear_66_508" x1="7.32808" y1="5.35009" x2="3.70791" y2="5.89311" gradientUnits="userSpaceOnUse">
<stop stop-color="#FF5C29"/>
<stop offset="1" stop-color="#FF395C"/>
</linearGradient>
</defs>
</svg>
