<svg width="36" height="37" viewBox="0 0 36 37" fill="none" xmlns="http://www.w3.org/2000/svg">
<circle cx="18" cy="18.4828" r="16" fill="url(#paint0_linear_1_2370)"/>
<circle cx="18" cy="18.4828" r="17.5714" stroke="url(#paint1_linear_1_2370)" stroke-width="0.857143"/>
<path d="M22.6308 17.3518C22.5743 17.2938 22.3609 17.0458 22.1622 16.8418C20.9971 15.5588 17.9576 13.4588 16.3668 12.8178C16.1252 12.7148 15.5144 12.4968 15.188 12.4828C14.8753 12.4828 14.5772 12.5548 14.2927 12.7008C13.9381 12.9048 13.6537 13.2258 13.4978 13.6048C13.3975 13.8678 13.2416 14.6548 13.2416 14.6688C13.0857 15.5298 13 16.9288 13 18.4748C13 19.9478 13.0857 21.2898 13.2133 22.1638C13.228 22.1778 13.3838 23.1558 13.5543 23.4908C13.867 24.1028 14.4778 24.4828 15.1315 24.4828H15.188C15.6137 24.4678 16.509 24.0878 16.509 24.0738C18.0141 23.4318 20.9834 21.4348 22.1768 20.1078C22.1768 20.1078 22.5129 19.7668 22.659 19.5538C22.887 19.2478 23 18.8688 23 18.4898C23 18.0668 22.8724 17.6728 22.6308 17.3518Z" fill="white"/>
<defs>
<linearGradient id="paint0_linear_1_2370" x1="7.11686" y1="6.77981" x2="26.7948" y2="6.77024" gradientUnits="userSpaceOnUse">
<stop stop-color="#FF395C"/>
<stop offset="1" stop-color="#FF5C29"/>
</linearGradient>
<linearGradient id="paint1_linear_1_2370" x1="8.5" y1="-15.5172" x2="57" y2="50.4828" gradientUnits="userSpaceOnUse">
<stop stop-color="#FF395C"/>
<stop offset="1" stop-color="white" stop-opacity="0"/>
</linearGradient>
</defs>
</svg>
