<svg width="14" height="14" viewBox="0 0 14 14" fill="none" xmlns="http://www.w3.org/2000/svg">
<path d="M13.3624 6.10017L12.4291 5.03351C12.2291 4.83351 12.0958 4.43351 12.0958 4.16684V3.10018C12.0958 2.36684 11.4958 1.83351 10.8291 1.83351H9.69576C9.42909 1.83351 9.02909 1.70018 8.82909 1.50018L7.76243 0.566845C7.29576 0.166846 6.56243 0.166846 6.09576 0.566845L5.09576 1.50018C4.89576 1.70018 4.49576 1.83351 4.2291 1.83351H3.09577C2.36243 1.83351 1.8291 2.43351 1.8291 3.10018V4.23351C1.8291 4.50018 1.69577 4.90017 1.49577 5.10017L0.629101 6.16684C0.229102 6.63351 0.229102 7.36684 0.629101 7.83351L1.49577 8.90017C1.69577 9.10017 1.8291 9.50017 1.8291 9.76684V10.9002C1.8291 11.6335 2.4291 12.1668 3.09577 12.1668H4.2291C4.49576 12.1668 4.89576 12.3002 5.09576 12.5002L6.16243 13.4335C6.6291 13.8335 7.36243 13.8335 7.82909 13.4335L8.89576 12.5002C9.09576 12.3002 9.49576 12.1668 9.76243 12.1668H10.8958C11.6291 12.1668 12.1624 11.5668 12.1624 10.9002V9.76684C12.1624 9.50017 12.2958 9.10017 12.4958 8.90017L13.4291 7.83351C13.7624 7.36684 13.7624 6.56684 13.3624 6.10017ZM9.76243 5.70017L6.56243 8.90017C6.49576 8.96684 6.36243 9.03351 6.2291 9.03351C6.09576 9.03351 5.96243 8.96684 5.89576 8.90017L4.29576 7.30017C4.09576 7.10017 4.09576 6.76684 4.29576 6.56684C4.49576 6.36684 4.8291 6.36684 5.0291 6.56684L6.29576 7.83351L9.02909 4.96684C9.22909 4.76684 9.56243 4.76684 9.76243 4.96684C9.96243 5.16684 9.96243 5.50017 9.76243 5.70017Z" fill="#2A85FF"/>
</svg>
