<svg width="18" height="14" viewBox="0 0 18 14" fill="none" xmlns="http://www.w3.org/2000/svg">
<path fill-rule="evenodd" clip-rule="evenodd" d="M12.5844 9.90198C12.6513 11.4723 11.4276 12.8002 9.85129 12.867C9.73518 12.872 4.07491 12.8602 4.07491 12.8602C2.50624 12.9835 1.13333 11.8161 1.0096 10.2517C1.00028 10.1351 1.00282 3.84531 1.00282 3.84531C0.93333 2.27327 2.15539 0.941988 3.73253 0.87272C3.85033 0.866807 9.50297 0.877789 9.50297 0.877789C11.0793 0.756148 12.4564 1.932 12.5785 3.50404C12.5869 3.61723 12.5844 9.90198 12.5844 9.90198Z" stroke="white" stroke-width="1.3" stroke-linecap="round" stroke-linejoin="round"/>
<path d="M12.5869 5.13813L15.3123 2.82813C15.9877 2.25556 17.0007 2.75442 16.9999 3.65699L16.99 9.95613C16.9891 10.8587 15.9753 11.3533 15.3016 10.7807L12.5869 8.4707" stroke="white" stroke-width="1.3" stroke-linecap="round" stroke-linejoin="round"/>
</svg>
