<svg width="14" height="12" viewBox="0 0 14 12" fill="none" xmlns="http://www.w3.org/2000/svg">
<path d="M13.195 5.71709C13.174 7.0367 12.7756 8.10638 11.9752 9.0361C11.8145 9.22271 11.5733 9.25604 11.3916 9.11941C11.1539 8.94613 11.1085 8.7162 11.2762 8.50626C11.4789 8.253 11.6712 7.99308 11.8215 7.70983C12.0451 7.28662 12.1919 6.84342 12.2548 6.37356C12.3981 5.29055 12.1325 4.30084 11.4719 3.40778C11.3811 3.28448 11.2727 3.17451 11.1784 3.05122C11.049 2.88793 11.07 2.68799 11.2273 2.5347C11.395 2.36809 11.6013 2.33476 11.7795 2.44473C11.8145 2.46472 11.8459 2.49138 11.8704 2.52137C12.5344 3.24783 12.9574 4.08424 13.1146 5.04062C13.1636 5.30388 13.1775 5.56713 13.195 5.71709Z" fill="white"/>
<path d="M11.2113 5.82417C11.2078 6.5173 10.9981 7.13378 10.5787 7.68362C10.4388 7.8669 10.2012 7.91355 10.0124 7.79692C9.78177 7.65363 9.71187 7.41703 9.8342 7.21043C9.95303 7.01049 10.0928 6.82054 10.1697 6.60727C10.4493 5.8575 10.341 5.15104 9.85866 4.4979C9.79925 4.41793 9.73633 4.33129 9.70837 4.23798C9.65245 4.0547 9.78177 3.8481 9.98798 3.75812C10.1627 3.68148 10.362 3.73147 10.4913 3.88475C10.9666 4.45458 11.2078 5.10439 11.2113 5.82417Z" fill="white"/>
<path d="M8.14896 10.8844C8.14896 10.8778 8.14896 10.8744 8.14896 10.8678C8.14896 9.20159 8.14896 7.53542 8.14896 5.86924C8.14896 4.20307 8.14896 2.5369 8.14896 0.870732C8.14896 0.864067 8.14896 0.860735 8.14896 0.85407V0.844073C8.14896 0.807417 8.14896 0.774094 8.14896 0.737438C8.14896 0.727441 8.14896 0.717444 8.14896 0.707447C8.14896 0.69745 8.14896 0.687453 8.14896 0.677456V0.674124C8.14896 0.670791 8.14896 0.670791 8.14896 0.667459C8.14547 0.617474 8.13848 0.567489 8.121 0.524168V0.520836C8.08955 0.430863 8.02663 0.357551 7.91829 0.307566C7.87635 0.287572 7.83441 0.277575 7.79596 0.27091C7.79246 0.27091 7.79246 0.27091 7.78897 0.27091C7.78547 0.27091 7.78547 0.27091 7.78198 0.27091C7.77499 0.27091 7.768 0.27091 7.76101 0.267578H7.75751H7.75402C7.74353 0.267578 7.73305 0.267578 7.72256 0.267578H7.71907H7.71557C7.70509 0.267578 7.6946 0.27091 7.68062 0.27091H7.67713C7.67014 0.27091 7.66664 0.274243 7.65965 0.274243C7.65965 0.274243 7.65965 0.274243 7.65616 0.274243C7.64567 0.277575 7.63868 0.277575 7.6282 0.280907H7.6247C7.61771 0.28424 7.61072 0.28424 7.60373 0.287572C7.60373 0.287572 7.60024 0.287572 7.59674 0.290905C7.59325 0.290905 7.59325 0.294237 7.58975 0.294237C7.58626 0.294237 7.58276 0.297569 7.57927 0.297569H7.57577C7.57228 0.300902 7.56529 0.300902 7.56179 0.304234H7.5583C7.5548 0.304234 7.5548 0.307566 7.5513 0.307566H7.54781C7.54082 0.310899 7.53732 0.314231 7.53033 0.317563L7.52684 0.320896C7.52334 0.320896 7.52334 0.324228 7.51985 0.324228C7.48839 0.34089 7.45344 0.364216 7.42199 0.387542C6.92219 0.770762 6.4189 1.15065 5.91911 1.53387C5.89464 1.55386 5.87018 1.57386 5.84571 1.59052C5.82474 1.60718 5.80377 1.62384 5.7828 1.63717C5.75134 1.6605 5.71989 1.68382 5.69193 1.70715C5.66397 1.73048 5.63251 1.75047 5.60455 1.7738C5.20262 2.08037 4.80068 2.38361 4.39875 2.69019C4.18905 2.85014 3.98284 3.00676 3.78012 3.16005C3.69275 3.2267 3.60188 3.29334 3.5145 3.35999L1.61667 3.4533H1.57473H1.54677H1.5258C0.949116 3.46663 0.599609 3.80319 0.599609 4.34303V4.35969C0.599609 5.36939 0.599609 6.37576 0.599609 7.38546V7.40212C0.599609 7.94196 0.949116 8.27519 1.51532 8.27519H1.53978H1.56774H1.61318L3.50401 8.3685C3.59139 8.43515 3.68226 8.50179 3.76964 8.56844C3.77313 8.57177 3.77663 8.57511 3.78362 8.57844C3.98284 8.72839 4.18555 8.88501 4.39176 9.04163C4.75175 9.31489 5.10825 9.58814 5.46824 9.85806C5.61853 9.97136 5.76532 10.0847 5.91561 10.198C5.97503 10.2446 6.03794 10.2913 6.09736 10.3379C6.53773 10.6745 6.97811 11.011 7.41849 11.3443C7.45344 11.3709 7.48839 11.3943 7.52684 11.4143C7.53033 11.4176 7.53732 11.4176 7.54082 11.4209C7.5583 11.4276 7.57228 11.4376 7.58975 11.4443H7.59325C7.59674 11.4443 7.59674 11.4443 7.60024 11.4476C7.60373 11.4476 7.60723 11.4509 7.61422 11.4509C7.63169 11.4576 7.65266 11.4609 7.67363 11.4642C7.67363 11.4642 7.67363 11.4642 7.67713 11.4642C7.69111 11.4676 7.70159 11.4676 7.71557 11.4676C7.71557 11.4676 7.71557 11.4676 7.71907 11.4676H7.72256C7.72955 11.4676 7.73654 11.4676 7.74353 11.4676C7.74703 11.4676 7.75402 11.4676 7.75751 11.4676C7.7645 11.4676 7.768 11.4676 7.77499 11.4676C7.77848 11.4676 7.78198 11.4676 7.78547 11.4676C7.78897 11.4676 7.78897 11.4676 7.79247 11.4676C7.79596 11.4676 7.79946 11.4676 7.80295 11.4676C7.8414 11.4609 7.88334 11.4509 7.92528 11.4309C8.03362 11.3809 8.09654 11.3076 8.12799 11.221V11.2177C8.14547 11.1743 8.15246 11.1243 8.15595 11.071V11.0677C8.15595 11.0577 8.15595 11.0477 8.15595 11.0344C8.15595 11.0244 8.15595 11.0144 8.15595 11.0044C8.15595 10.9677 8.15595 10.9344 8.15595 10.8977V10.8844H8.14896Z" fill="white"/>
</svg>
