<svg width="272" height="37" viewBox="0 0 272 37" fill="none" xmlns="http://www.w3.org/2000/svg">
<path d="M96.24 18.5182C96.24 12.868 96.24 7.21773 96.24 1.53103C96.24 1.34877 96.24 1.20296 96.24 1.02069C96.3138 0.437438 96.8301 0 97.4202 0C98.0104 0 98.5267 0.437438 98.6374 1.02069C98.6743 1.20296 98.6743 1.42167 98.6743 1.64039C98.6743 8.23842 98.6743 14.8729 98.6743 21.4709C98.6743 26.1369 98.6743 30.8394 98.6743 35.5054C98.6743 35.87 98.5636 36.2709 98.3423 36.5626C98.0841 36.9635 97.6047 37.0729 97.1252 36.9271C96.6457 36.7813 96.3506 36.4532 96.2769 35.9429C96.24 35.7606 96.24 35.5419 96.24 35.3232C96.24 30.402 96.24 25.4808 96.24 20.5596C96.24 19.9399 96.24 19.2473 96.24 18.5182Z" fill="white"/>
<path d="M103.69 18.5911C103.69 23.2572 103.69 27.9596 103.69 32.6256C103.69 32.8443 103.69 33.0631 103.69 33.2818C103.617 33.9379 103.1 34.3754 102.473 34.3754C101.846 34.3754 101.367 33.9015 101.293 33.2818C101.293 33.136 101.293 32.9902 101.293 32.8443C101.293 23.3665 101.293 13.8522 101.293 4.3744C101.293 4.19214 101.293 4.00987 101.293 3.8276C101.33 3.2079 101.846 2.73401 102.473 2.73401C103.1 2.73401 103.617 3.17145 103.69 3.79115C103.727 4.00987 103.69 4.26504 103.69 4.48376C103.69 9.14977 103.69 13.8887 103.69 18.5911Z" fill="white"/>
<path d="M93.6213 18.5182C93.6213 22.601 93.6213 26.7202 93.6213 30.803C93.6213 31.0217 93.6213 31.2404 93.5844 31.4591C93.4369 32.0059 92.9205 32.3705 92.3304 32.334C91.7772 32.2975 91.2977 31.8601 91.2239 31.3133C91.187 31.0581 91.2239 30.7665 91.2239 30.5113C91.2239 22.3823 91.2239 14.2532 91.2239 6.0877C91.2239 5.28573 91.5927 4.81183 92.2935 4.70247C93.0312 4.62957 93.6582 5.13991 93.6582 5.90543C93.6582 7.10838 93.6582 8.31134 93.6582 9.5143C93.6213 12.5764 93.6213 15.5291 93.6213 18.5182Z" fill="white"/>
<path d="M88.5686 18.5183C88.5686 21.471 88.5686 24.3872 88.5686 27.3399C88.5686 27.9597 88.3104 28.3971 87.794 28.5794C87.3145 28.7616 86.8351 28.6887 86.5031 28.2513C86.3187 28.0326 86.1712 27.668 86.1712 27.3764C86.1343 21.471 86.1712 15.5656 86.1712 9.66014C86.1712 8.93107 86.6875 8.38427 87.4252 8.42073C88.126 8.42073 88.6054 8.96753 88.6054 9.73304C88.5686 12.6493 88.5686 15.602 88.5686 18.5183Z" fill="white"/>
<path d="M78.4626 18.5182C78.4626 21.4345 78.4626 24.3507 78.4626 27.267C78.4626 28.069 77.9831 28.5793 77.2823 28.6158C76.6184 28.6158 76.1021 28.1419 76.0652 27.4493C76.0652 27.1212 76.0652 26.7931 76.0652 26.4286C76.0652 20.8877 76.0652 15.3103 76.0652 9.76946C76.0652 9.00394 76.434 8.53005 77.0979 8.42069C77.8725 8.31133 78.4995 8.85813 78.4995 9.69655C78.4995 11.8473 78.4995 13.998 78.4995 16.1488C78.4626 16.9507 78.4626 17.7527 78.4626 18.5182Z" fill="white"/>
<path d="M106.309 18.5185C106.309 15.7116 106.309 12.8682 106.309 10.0613C106.309 9.18645 106.788 8.63965 107.526 8.63965C108.264 8.63965 108.743 9.18645 108.743 10.0249C108.743 15.6751 108.743 21.3254 108.743 26.9756C108.743 27.814 108.264 28.3608 107.526 28.3608C106.788 28.3608 106.309 27.814 106.309 26.9756C106.309 24.2052 106.309 21.3618 106.309 18.5185Z" fill="white"/>
<path d="M122 18.8788C122 16.0719 122 13.2286 122 10.4217C122 9.5468 122.48 9 123.217 9C123.955 9 124.435 9.5468 124.435 10.3852C124.435 16.0355 124.435 21.6857 124.435 27.336C124.435 28.1744 123.955 28.7212 123.217 28.7212C122.48 28.7212 122 28.1744 122 27.336C122 24.5655 122 21.7222 122 18.8788Z" fill="white"/>
<path d="M73.4096 18.5547C73.4096 20.5596 73.4096 22.5645 73.4096 24.533C73.4096 25.3714 72.9301 25.8818 72.1925 25.8818C71.4548 25.8818 71.0122 25.3714 71.0122 24.533C71.0122 20.5232 71.0122 16.4768 71.0122 12.467C71.0122 11.6286 71.4917 11.1547 72.1925 11.1182C72.9301 11.1182 73.4096 11.6286 73.4096 12.467C73.4465 14.5448 73.4096 16.5498 73.4096 18.5547Z" fill="white"/>
<path d="M83.5155 18.5182C83.5155 20.5596 83.5155 22.601 83.5155 24.6424C83.5155 25.1892 83.2942 25.5901 82.7779 25.8089C82.2984 26.0276 81.8189 25.9547 81.4501 25.5901C81.2657 25.3714 81.0813 25.0433 81.0813 24.7517C81.0444 20.5961 81.0444 16.4768 81.0813 12.3212C81.0813 11.5921 81.5976 11.1182 82.2984 11.1182C82.9623 11.1182 83.4786 11.6286 83.4786 12.3212C83.5155 14.399 83.5155 16.4768 83.5155 18.5182Z" fill="white"/>
<path d="M68.3935 18.5547C68.3935 19.9764 68.3935 21.398 68.3935 22.8197C68.3935 23.6581 67.914 24.1685 67.1764 24.1685C66.4387 24.1685 65.9592 23.6581 65.9592 22.7833C65.9592 19.9035 65.9592 17.0601 65.9592 14.1803C65.9592 13.3419 66.4387 12.8315 67.1764 12.8315C67.914 12.8315 68.3935 13.3419 68.3935 14.2168C68.3935 15.6749 68.3935 17.133 68.3935 18.5547Z" fill="white"/>
<path d="M113.796 18.5545C113.796 20.0491 113.796 21.5073 113.796 23.0018C113.796 23.6215 113.427 24.059 112.874 24.1683C112.321 24.2777 111.731 24.059 111.509 23.5486C111.436 23.3664 111.399 23.1476 111.399 22.9289C111.399 20.0127 111.399 17.0964 111.399 14.1802C111.399 13.3782 111.878 12.9043 112.579 12.9043C113.317 12.9043 113.796 13.4146 113.796 14.2166C113.796 15.6383 113.796 17.0964 113.796 18.5545Z" fill="white"/>
<path d="M129.487 18.9149C129.487 20.4095 129.487 21.8676 129.487 23.3622C129.487 23.9819 129.119 24.4193 128.565 24.5287C128.012 24.638 127.422 24.4193 127.201 23.909C127.127 23.7267 127.09 23.508 127.09 23.2893C127.09 20.373 127.09 17.4568 127.09 14.5405C127.09 13.7385 127.57 13.2646 128.27 13.2646C129.008 13.2646 129.487 13.775 129.487 14.577C129.487 15.9986 129.487 17.4568 129.487 18.9149Z" fill="white"/>
<path d="M118.85 18.518C118.85 19.6116 118.85 20.7416 118.85 21.8352C118.85 22.6008 118.37 23.1476 117.669 23.1476C116.932 23.1476 116.415 22.6372 116.415 21.8717C116.415 19.648 116.415 17.4244 116.415 15.1643C116.415 14.3988 116.932 13.852 117.669 13.8884C118.37 13.8884 118.85 14.4352 118.85 15.2008C118.85 16.3308 118.85 17.4244 118.85 18.518Z" fill="white"/>
<path d="M134.541 18.8784C134.541 19.9719 134.541 21.102 134.541 22.1956C134.541 22.9611 134.061 23.5079 133.361 23.5079C132.623 23.5079 132.107 22.9976 132.107 22.232C132.107 20.0084 132.107 17.7848 132.107 15.5247C132.107 14.7591 132.623 14.2123 133.361 14.2488C134.061 14.2488 134.541 14.7956 134.541 15.5611C134.541 16.6912 134.541 17.7848 134.541 18.8784Z" fill="white"/>
<path d="M30.2808 18.5182C30.2808 14.8729 30.2808 11.264 30.2808 7.6187C30.2808 7.50934 30.2808 7.39998 30.2808 7.29062C30.3545 6.88963 30.8709 6.63446 31.461 6.63446C32.0511 6.63446 32.5675 6.88963 32.6782 7.29062C32.715 7.39998 32.715 7.54579 32.715 7.6916C32.715 11.9202 32.715 16.1852 32.715 20.4138C32.715 23.4029 32.715 26.4286 32.715 29.4177C32.715 29.6364 32.6044 29.9281 32.3831 30.1103C32.1249 30.3655 31.6454 30.4384 31.166 30.329C30.6865 30.2197 30.3914 30.0374 30.3176 29.7093C30.2808 29.6 30.2808 29.4542 30.2808 29.3084C30.2808 26.1369 30.2808 23.0019 30.2808 19.8305C30.2808 19.4295 30.2808 18.9921 30.2808 18.5182Z" fill="white"/>
<path d="M37.7313 18.5547C37.7313 21.5438 37.7313 24.5695 37.7313 27.5586C37.7313 27.7044 37.7313 27.8502 37.7313 27.9961C37.6575 28.397 37.1411 28.6887 36.5141 28.6887C35.8871 28.6887 35.4076 28.397 35.3339 27.9961C35.3339 27.8867 35.3339 27.8138 35.3339 27.7044C35.3339 21.6167 35.3339 15.4926 35.3339 9.40492C35.3339 9.29556 35.3339 9.14975 35.3339 9.04039C35.3707 8.6394 35.8871 8.34778 36.5141 8.34778C37.1411 8.34778 37.6575 8.6394 37.7313 9.04039C37.7681 9.1862 37.7313 9.33201 37.7313 9.47783C37.7313 12.5034 37.7313 15.5291 37.7313 18.5547Z" fill="white"/>
<path d="M27.6621 18.5182C27.6621 21.1428 27.6621 23.7675 27.6621 26.3921C27.6621 26.5379 27.6621 26.6837 27.6252 26.7931C27.4777 27.1576 26.9613 27.3763 26.3712 27.3399C25.8179 27.3034 25.3384 27.0483 25.2647 26.6837C25.2278 26.5015 25.2647 26.3556 25.2647 26.1734C25.2647 20.9606 25.2647 15.7113 25.2647 10.4985C25.2647 9.98816 25.6335 9.66008 26.3343 9.62363C27.0719 9.55073 27.699 9.91526 27.699 10.3891C27.699 11.1547 27.699 11.9566 27.699 12.7222C27.6621 14.6906 27.6621 16.6226 27.6621 18.5182Z" fill="white"/>
<path d="M22.6093 18.5182C22.6093 20.4138 22.6093 22.2729 22.6093 24.1684C22.6093 24.5694 22.3512 24.8611 21.8348 24.9704C21.3553 25.0798 20.8758 25.0433 20.5439 24.7881C20.3595 24.6423 20.2119 24.4236 20.2119 24.2413C20.1751 20.4502 20.2119 16.6591 20.2119 12.8679C20.2119 12.3941 20.7283 12.066 21.466 12.066C22.1667 12.066 22.6462 12.3941 22.6462 12.9044C22.6093 14.7635 22.6093 16.6591 22.6093 18.5182Z" fill="white"/>
<path d="M12.5033 18.5182C12.5033 20.3773 12.5033 22.2729 12.5033 24.132C12.5033 24.6423 12.0239 24.9704 11.3231 25.0069C10.6592 25.0069 10.1428 24.7153 10.106 24.2778C10.106 24.0591 10.106 23.8404 10.106 23.6217C10.106 20.0492 10.106 16.4768 10.106 12.9409C10.106 12.467 10.4748 12.1389 11.1387 12.066C11.9132 11.9931 12.5402 12.3576 12.5402 12.868C12.5402 14.2532 12.5402 15.6384 12.5402 16.9872C12.5033 17.534 12.5033 18.0079 12.5033 18.5182Z" fill="white"/>
<path d="M40.3499 18.5182C40.3499 16.6956 40.3499 14.9093 40.3499 13.0867C40.3499 12.5399 40.8293 12.1754 41.567 12.1754C42.3046 12.1754 42.7841 12.5399 42.7841 13.0867C42.7841 16.732 42.7841 20.3409 42.7841 23.9862C42.7841 24.533 42.3046 24.8611 41.567 24.8611C40.8293 24.8611 40.3499 24.4965 40.3499 23.9862C40.3499 22.1635 40.3499 20.3409 40.3499 18.5182Z" fill="white"/>
<path d="M57.9062 18.5547C57.9062 19.9399 57.9062 21.3251 57.9062 22.7103C57.9062 23.2571 57.4267 23.5852 56.6891 23.5852C55.9514 23.5852 55.4719 23.2571 55.4719 22.7103C55.4719 19.9034 55.4719 17.133 55.4719 14.3261C55.4719 13.7793 56.0252 13.4512 56.7628 13.4877C57.4267 13.5241 57.8693 13.8522 57.8693 14.3261C57.9062 15.7478 57.9062 17.1695 57.9062 18.5547Z" fill="white"/>
<path d="M7.45037 18.5547C7.45037 19.8305 7.45037 21.1064 7.45037 22.4187C7.45037 22.9655 6.97089 23.2936 6.23323 23.2936C5.49557 23.2936 5.05298 22.9655 5.05298 22.4187C5.05298 19.8305 5.05298 17.2423 5.05298 14.6542C5.05298 14.1438 5.53246 13.8157 6.23323 13.8157C6.97089 13.8157 7.45037 14.1438 7.45037 14.6906C7.48725 15.9665 7.45037 17.2423 7.45037 18.5547Z" fill="white"/>
<path d="M17.5563 18.5182C17.5563 19.8305 17.5563 21.1429 17.5563 22.4552C17.5563 22.8197 17.335 23.0749 16.8186 23.1842C16.3392 23.3301 15.8597 23.2936 15.4909 23.0384C15.3064 22.8926 15.122 22.6739 15.122 22.4916C15.0851 19.8305 15.0851 17.1695 15.122 14.5084C15.122 14.0345 15.6384 13.7429 16.3392 13.7429C17.0031 13.7429 17.5194 14.0709 17.5194 14.5084C17.5563 15.8936 17.5563 17.2059 17.5563 18.5182Z" fill="white"/>
<path d="M2.43427 18.5547C2.43427 19.466 2.43427 20.3773 2.43427 21.2887C2.43427 21.8355 1.95479 22.1636 1.21714 22.1636C0.479478 22.1636 0 21.8355 0 21.2887C0 19.466 0 17.6069 0 15.7842C0 15.2374 0.479478 14.9094 1.21714 14.9094C1.95479 14.9094 2.43427 15.2374 2.43427 15.7842C2.43427 16.6956 2.43427 17.6434 2.43427 18.5547Z" fill="white"/>
<path d="M62.9592 18.5546C62.9592 19.5024 62.9592 20.4502 62.9592 21.398C62.9592 21.799 62.5166 22.0906 61.9264 22.1635C61.3363 22.2 60.7831 22.0177 60.5987 21.6532C60.5249 21.5438 60.5249 21.4344 60.5249 21.2886C60.5249 19.4295 60.5249 17.5704 60.5249 15.7477C60.5249 15.2009 61.0044 14.8729 61.7789 14.8729C62.5166 14.8729 62.9592 15.2009 62.9592 15.7477C62.9592 16.6955 62.9592 17.6433 62.9592 18.5546Z" fill="white"/>
<path d="M47.8371 18.5547C47.8371 19.5025 47.8371 20.4502 47.8371 21.398C47.8371 21.799 47.4683 22.0906 46.915 22.1635C46.3618 22.2365 45.7716 22.0906 45.5503 21.7626C45.4766 21.6532 45.4397 21.5074 45.4397 21.3616C45.4397 19.5025 45.4397 17.6069 45.4397 15.7478C45.4397 15.2374 45.9192 14.9094 46.62 14.9094C47.3576 14.9094 47.8371 15.2374 47.8371 15.7478C47.8371 16.6591 47.8371 17.6069 47.8371 18.5547Z" fill="white"/>
<path d="M52.8901 18.5182C52.8901 19.2473 52.8901 19.9399 52.8901 20.669C52.8901 21.1793 52.4106 21.5074 51.7098 21.5074C50.9722 21.5074 50.4558 21.1793 50.4558 20.669C50.4558 19.2473 50.4558 17.7892 50.4558 16.3675C50.4558 15.8571 50.9722 15.5291 51.7098 15.5291C52.4106 15.5291 52.8901 15.8936 52.8901 16.3675C52.8901 17.0965 52.8901 17.8256 52.8901 18.5182Z" fill="white"/>
<path d="M233.24 18.5182C233.24 12.868 233.24 7.21773 233.24 1.53103C233.24 1.34877 233.24 1.20296 233.24 1.02069C233.314 0.437438 233.83 0 234.42 0C235.01 0 235.527 0.437438 235.637 1.02069C235.674 1.20296 235.674 1.42167 235.674 1.64039C235.674 8.23842 235.674 14.8729 235.674 21.4709C235.674 26.1369 235.674 30.8394 235.674 35.5054C235.674 35.87 235.564 36.2709 235.342 36.5626C235.084 36.9635 234.605 37.0729 234.125 36.9271C233.646 36.7813 233.351 36.4532 233.277 35.9429C233.24 35.7606 233.24 35.5419 233.24 35.3232C233.24 30.402 233.24 25.4808 233.24 20.5596C233.24 19.9399 233.24 19.2473 233.24 18.5182Z" fill="white"/>
<path d="M240.69 18.5911C240.69 23.2572 240.69 27.9596 240.69 32.6256C240.69 32.8443 240.69 33.0631 240.69 33.2818C240.617 33.9379 240.1 34.3754 239.473 34.3754C238.846 34.3754 238.367 33.9015 238.293 33.2818C238.293 33.136 238.293 32.9902 238.293 32.8443C238.293 23.3665 238.293 13.8522 238.293 4.3744C238.293 4.19214 238.293 4.00987 238.293 3.8276C238.33 3.2079 238.846 2.73401 239.473 2.73401C240.1 2.73401 240.617 3.17145 240.69 3.79115C240.727 4.00987 240.69 4.26504 240.69 4.48376C240.69 9.14977 240.69 13.8887 240.69 18.5911Z" fill="white"/>
<path d="M230.621 18.5182C230.621 22.601 230.621 26.7202 230.621 30.803C230.621 31.0217 230.621 31.2404 230.584 31.4591C230.437 32.0059 229.921 32.3705 229.33 32.334C228.777 32.2975 228.298 31.8601 228.224 31.3133C228.187 31.0581 228.224 30.7665 228.224 30.5113C228.224 22.3823 228.224 14.2532 228.224 6.0877C228.224 5.28573 228.593 4.81183 229.294 4.70247C230.031 4.62957 230.658 5.13991 230.658 5.90543C230.658 7.10838 230.658 8.31134 230.658 9.5143C230.621 12.5764 230.621 15.5291 230.621 18.5182Z" fill="white"/>
<path d="M225.569 18.5183C225.569 21.471 225.569 24.3872 225.569 27.3399C225.569 27.9597 225.31 28.3971 224.794 28.5794C224.315 28.7616 223.835 28.6887 223.503 28.2513C223.319 28.0326 223.171 27.668 223.171 27.3764C223.134 21.471 223.171 15.5656 223.171 9.66014C223.171 8.93107 223.688 8.38427 224.425 8.42073C225.126 8.42073 225.605 8.96753 225.605 9.73304C225.569 12.6493 225.569 15.602 225.569 18.5183Z" fill="white"/>
<path d="M215.463 18.5182C215.463 21.4345 215.463 24.3507 215.463 27.267C215.463 28.069 214.983 28.5793 214.282 28.6158C213.618 28.6158 213.102 28.1419 213.065 27.4493C213.065 27.1212 213.065 26.7931 213.065 26.4286C213.065 20.8877 213.065 15.3103 213.065 9.76946C213.065 9.00394 213.434 8.53005 214.098 8.42069C214.872 8.31133 215.499 8.85813 215.499 9.69655C215.499 11.8473 215.499 13.998 215.499 16.1488C215.463 16.9507 215.463 17.7527 215.463 18.5182Z" fill="white"/>
<path d="M243.309 18.5185C243.309 15.7116 243.309 12.8682 243.309 10.0613C243.309 9.18645 243.788 8.63965 244.526 8.63965C245.264 8.63965 245.743 9.18645 245.743 10.0249C245.743 15.6751 245.743 21.3254 245.743 26.9756C245.743 27.814 245.264 28.3608 244.526 28.3608C243.788 28.3608 243.309 27.814 243.309 26.9756C243.309 24.2052 243.309 21.3618 243.309 18.5185Z" fill="white"/>
<path d="M259 18.8788C259 16.0719 259 13.2286 259 10.4217C259 9.5468 259.48 9 260.217 9C260.955 9 261.435 9.5468 261.435 10.3852C261.435 16.0355 261.435 21.6857 261.435 27.336C261.435 28.1744 260.955 28.7212 260.217 28.7212C259.48 28.7212 259 28.1744 259 27.336C259 24.5655 259 21.7222 259 18.8788Z" fill="white"/>
<path d="M210.41 18.5547C210.41 20.5596 210.41 22.5645 210.41 24.533C210.41 25.3714 209.93 25.8818 209.192 25.8818C208.455 25.8818 208.012 25.3714 208.012 24.533C208.012 20.5232 208.012 16.4768 208.012 12.467C208.012 11.6286 208.492 11.1547 209.192 11.1182C209.93 11.1182 210.41 11.6286 210.41 12.467C210.446 14.5448 210.41 16.5498 210.41 18.5547Z" fill="white"/>
<path d="M220.516 18.5182C220.516 20.5596 220.516 22.601 220.516 24.6424C220.516 25.1892 220.294 25.5901 219.778 25.8089C219.298 26.0276 218.819 25.9547 218.45 25.5901C218.266 25.3714 218.081 25.0433 218.081 24.7517C218.044 20.5961 218.044 16.4768 218.081 12.3212C218.081 11.5921 218.598 11.1182 219.298 11.1182C219.962 11.1182 220.479 11.6286 220.479 12.3212C220.516 14.399 220.516 16.4768 220.516 18.5182Z" fill="white"/>
<path d="M205.394 18.5547C205.394 19.9764 205.394 21.398 205.394 22.8197C205.394 23.6581 204.914 24.1685 204.176 24.1685C203.439 24.1685 202.959 23.6581 202.959 22.7833C202.959 19.9035 202.959 17.0601 202.959 14.1803C202.959 13.3419 203.439 12.8315 204.176 12.8315C204.914 12.8315 205.394 13.3419 205.394 14.2168C205.394 15.6749 205.394 17.133 205.394 18.5547Z" fill="white"/>
<path d="M250.796 18.5545C250.796 20.0491 250.796 21.5073 250.796 23.0018C250.796 23.6215 250.427 24.059 249.874 24.1683C249.321 24.2777 248.731 24.059 248.509 23.5486C248.436 23.3664 248.399 23.1476 248.399 22.9289C248.399 20.0127 248.399 17.0964 248.399 14.1802C248.399 13.3782 248.878 12.9043 249.579 12.9043C250.317 12.9043 250.796 13.4146 250.796 14.2166C250.796 15.6383 250.796 17.0964 250.796 18.5545Z" fill="white"/>
<path d="M266.487 18.9149C266.487 20.4095 266.487 21.8676 266.487 23.3622C266.487 23.9819 266.119 24.4193 265.565 24.5287C265.012 24.638 264.422 24.4193 264.201 23.909C264.127 23.7267 264.09 23.508 264.09 23.2893C264.09 20.373 264.09 17.4568 264.09 14.5405C264.09 13.7385 264.57 13.2646 265.27 13.2646C266.008 13.2646 266.487 13.775 266.487 14.577C266.487 15.9986 266.487 17.4568 266.487 18.9149Z" fill="white"/>
<path d="M255.85 18.518C255.85 19.6116 255.85 20.7416 255.85 21.8352C255.85 22.6008 255.37 23.1476 254.669 23.1476C253.932 23.1476 253.415 22.6372 253.415 21.8717C253.415 19.648 253.415 17.4244 253.415 15.1643C253.415 14.3988 253.932 13.852 254.669 13.8884C255.37 13.8884 255.85 14.4352 255.85 15.2008C255.85 16.3308 255.85 17.4244 255.85 18.518Z" fill="white"/>
<path d="M271.541 18.8784C271.541 19.9719 271.541 21.102 271.541 22.1956C271.541 22.9611 271.061 23.5079 270.361 23.5079C269.623 23.5079 269.107 22.9976 269.107 22.232C269.107 20.0084 269.107 17.7848 269.107 15.5247C269.107 14.7591 269.623 14.2123 270.361 14.2488C271.061 14.2488 271.541 14.7956 271.541 15.5611C271.541 16.6912 271.541 17.7848 271.541 18.8784Z" fill="white"/>
<path d="M167.281 18.5182C167.281 14.8729 167.281 11.264 167.281 7.6187C167.281 7.50934 167.281 7.39998 167.281 7.29062C167.355 6.88963 167.871 6.63446 168.461 6.63446C169.051 6.63446 169.568 6.88963 169.678 7.29062C169.715 7.39998 169.715 7.54579 169.715 7.6916C169.715 11.9202 169.715 16.1852 169.715 20.4138C169.715 23.4029 169.715 26.4286 169.715 29.4177C169.715 29.6364 169.604 29.9281 169.383 30.1103C169.125 30.3655 168.645 30.4384 168.166 30.329C167.686 30.2197 167.391 30.0374 167.318 29.7093C167.281 29.6 167.281 29.4542 167.281 29.3084C167.281 26.1369 167.281 23.0019 167.281 19.8305C167.281 19.4295 167.281 18.9921 167.281 18.5182Z" fill="white"/>
<path d="M174.731 18.5547C174.731 21.5438 174.731 24.5695 174.731 27.5586C174.731 27.7044 174.731 27.8502 174.731 27.9961C174.657 28.397 174.141 28.6887 173.514 28.6887C172.887 28.6887 172.408 28.397 172.334 27.9961C172.334 27.8867 172.334 27.8138 172.334 27.7044C172.334 21.6167 172.334 15.4926 172.334 9.40492C172.334 9.29556 172.334 9.14975 172.334 9.04039C172.371 8.6394 172.887 8.34778 173.514 8.34778C174.141 8.34778 174.657 8.6394 174.731 9.04039C174.768 9.1862 174.731 9.33201 174.731 9.47783C174.731 12.5034 174.731 15.5291 174.731 18.5547Z" fill="white"/>
<path d="M164.662 18.5182C164.662 21.1428 164.662 23.7675 164.662 26.3921C164.662 26.5379 164.662 26.6837 164.625 26.7931C164.478 27.1576 163.961 27.3763 163.371 27.3399C162.818 27.3034 162.338 27.0483 162.265 26.6837C162.228 26.5015 162.265 26.3556 162.265 26.1734C162.265 20.9606 162.265 15.7113 162.265 10.4985C162.265 9.98816 162.634 9.66008 163.334 9.62363C164.072 9.55073 164.699 9.91526 164.699 10.3891C164.699 11.1547 164.699 11.9566 164.699 12.7222C164.662 14.6906 164.662 16.6226 164.662 18.5182Z" fill="white"/>
<path d="M159.609 18.5182C159.609 20.4138 159.609 22.2729 159.609 24.1684C159.609 24.5694 159.351 24.8611 158.835 24.9704C158.355 25.0798 157.876 25.0433 157.544 24.7881C157.359 24.6423 157.212 24.4236 157.212 24.2413C157.175 20.4502 157.212 16.6591 157.212 12.8679C157.212 12.3941 157.728 12.066 158.466 12.066C159.167 12.066 159.646 12.3941 159.646 12.9044C159.609 14.7635 159.609 16.6591 159.609 18.5182Z" fill="white"/>
<path d="M149.503 18.5182C149.503 20.3773 149.503 22.2729 149.503 24.132C149.503 24.6423 149.024 24.9704 148.323 25.0069C147.659 25.0069 147.143 24.7153 147.106 24.2778C147.106 24.0591 147.106 23.8404 147.106 23.6217C147.106 20.0492 147.106 16.4768 147.106 12.9409C147.106 12.467 147.475 12.1389 148.139 12.066C148.913 11.9931 149.54 12.3576 149.54 12.868C149.54 14.2532 149.54 15.6384 149.54 16.9872C149.503 17.534 149.503 18.0079 149.503 18.5182Z" fill="white"/>
<path d="M177.35 18.5182C177.35 16.6956 177.35 14.9093 177.35 13.0867C177.35 12.5399 177.829 12.1754 178.567 12.1754C179.305 12.1754 179.784 12.5399 179.784 13.0867C179.784 16.732 179.784 20.3409 179.784 23.9862C179.784 24.533 179.305 24.8611 178.567 24.8611C177.829 24.8611 177.35 24.4965 177.35 23.9862C177.35 22.1635 177.35 20.3409 177.35 18.5182Z" fill="white"/>
<path d="M194.906 18.5547C194.906 19.9399 194.906 21.3251 194.906 22.7103C194.906 23.2571 194.427 23.5852 193.689 23.5852C192.951 23.5852 192.472 23.2571 192.472 22.7103C192.472 19.9034 192.472 17.133 192.472 14.3261C192.472 13.7793 193.025 13.4512 193.763 13.4877C194.427 13.5241 194.869 13.8522 194.869 14.3261C194.906 15.7478 194.906 17.1695 194.906 18.5547Z" fill="white"/>
<path d="M144.45 18.5547C144.45 19.8305 144.45 21.1064 144.45 22.4187C144.45 22.9655 143.971 23.2936 143.233 23.2936C142.496 23.2936 142.053 22.9655 142.053 22.4187C142.053 19.8305 142.053 17.2423 142.053 14.6542C142.053 14.1438 142.532 13.8157 143.233 13.8157C143.971 13.8157 144.45 14.1438 144.45 14.6906C144.487 15.9665 144.45 17.2423 144.45 18.5547Z" fill="white"/>
<path d="M154.556 18.5182C154.556 19.8305 154.556 21.1429 154.556 22.4552C154.556 22.8197 154.335 23.0749 153.819 23.1842C153.339 23.3301 152.86 23.2936 152.491 23.0384C152.306 22.8926 152.122 22.6739 152.122 22.4916C152.085 19.8305 152.085 17.1695 152.122 14.5084C152.122 14.0345 152.638 13.7429 153.339 13.7429C154.003 13.7429 154.519 14.0709 154.519 14.5084C154.556 15.8936 154.556 17.2059 154.556 18.5182Z" fill="white"/>
<path d="M139.434 18.5547C139.434 19.466 139.434 20.3773 139.434 21.2887C139.434 21.8355 138.955 22.1636 138.217 22.1636C137.479 22.1636 137 21.8355 137 21.2887C137 19.466 137 17.6069 137 15.7842C137 15.2374 137.479 14.9094 138.217 14.9094C138.955 14.9094 139.434 15.2374 139.434 15.7842C139.434 16.6956 139.434 17.6434 139.434 18.5547Z" fill="white"/>
<path d="M199.959 18.5546C199.959 19.5024 199.959 20.4502 199.959 21.398C199.959 21.799 199.517 22.0906 198.926 22.1635C198.336 22.2 197.783 22.0177 197.599 21.6532C197.525 21.5438 197.525 21.4344 197.525 21.2886C197.525 19.4295 197.525 17.5704 197.525 15.7477C197.525 15.2009 198.004 14.8729 198.779 14.8729C199.517 14.8729 199.959 15.2009 199.959 15.7477C199.959 16.6955 199.959 17.6433 199.959 18.5546Z" fill="white"/>
<path d="M184.837 18.5547C184.837 19.5025 184.837 20.4502 184.837 21.398C184.837 21.799 184.468 22.0906 183.915 22.1635C183.362 22.2365 182.772 22.0906 182.55 21.7626C182.477 21.6532 182.44 21.5074 182.44 21.3616C182.44 19.5025 182.44 17.6069 182.44 15.7478C182.44 15.2374 182.919 14.9094 183.62 14.9094C184.358 14.9094 184.837 15.2374 184.837 15.7478C184.837 16.6591 184.837 17.6069 184.837 18.5547Z" fill="white"/>
<path d="M189.89 18.5182C189.89 19.2473 189.89 19.9399 189.89 20.669C189.89 21.1793 189.411 21.5074 188.71 21.5074C187.972 21.5074 187.456 21.1793 187.456 20.669C187.456 19.2473 187.456 17.7892 187.456 16.3675C187.456 15.8571 187.972 15.5291 188.71 15.5291C189.411 15.5291 189.89 15.8936 189.89 16.3675C189.89 17.0965 189.89 17.8256 189.89 18.5182Z" fill="white"/>
</svg>
