<svg width="36" height="36" viewBox="0 0 36 36" fill="none" xmlns="http://www.w3.org/2000/svg">
<path d="M36 18C36 27.9411 27.9411 36 18 36C8.05887 36 0 27.9411 0 18C0 8.05887 8.05887 0 18 0C27.9411 0 36 8.05887 36 18Z" fill="#272C30" fill-opacity="0.6"/>
<path d="M24.9503 16.492C24.8744 16.4147 24.5876 16.084 24.3205 15.812C22.7546 14.1013 18.6696 11.3013 16.5315 10.4467C16.2068 10.3093 15.3858 10.0187 14.9472 10C14.5269 10 14.1263 10.096 13.744 10.2907C13.2674 10.5627 12.8851 10.9907 12.6756 11.496C12.5407 11.8467 12.3312 12.896 12.3312 12.9147C12.1218 14.0627 12.0065 15.928 12.0065 17.9893C12.0065 19.9533 12.1218 21.7427 12.2933 22.908C12.3129 22.9267 12.5224 24.2307 12.7515 24.6773C13.1718 25.4933 13.9927 26 14.8713 26H14.9472C15.5194 25.98 16.7226 25.4733 16.7226 25.4547C18.7455 24.5987 22.7363 21.936 24.3402 20.1667C24.3402 20.1667 24.7919 19.712 24.9883 19.428C25.2947 19.02 25.4465 18.5147 25.4465 18.0093C25.4465 17.4453 25.275 16.92 24.9503 16.492Z" fill="white" fill-opacity="0.8"/>
</svg>
